PathFileType  4	(X/Y/Z) C:\Users\antoi\Documents\MyRepositories\mobilecap\ResultsAnalysis
DataRate	CameraRate	NumFrames	NumMarkers	Units	OrigDataRate	OrigDataStartFrame	OrigNumFrames
100.0	100.0	5	51	mm	100.0	1178	1346
Frame#	Time	r_knee			r_shank_antsup			r_ankle			r_calc			r_5meta			r_toe			L_knee			L_shank_antsup			L_ankle			L_calc			L_5meta			L_toe			r_sh2			r_sh3			r_sh4			L_sh2			L_sh3			r_thigh1			r_thigh2			r_thigh3			r_thigh4			r_thigh5			L_thigh1			L_thigh2			L_thigh3			L_thigh4			r.ASIS			r.PSIS			L.ASIS			L.PSIS			C7			R_Shoulder			L_Shoulder			R_Sternum			L_Sternum			R_humerus			R_elbow_med			R_elbow_lat			R_forearm			R_wrist_radius			R_wrist_ulna			L_humerus			L_elbow_med			L_elbow_lat			L_forearm			L_wrist_radius			L_wrist_ulna			R_HJC			L_HJC			R_HJC_reg			L_HJC_reg			
		X1	Y1	Z1	X2	Y2	Z2	X3	Y3	Z3	X4	Y4	Z4	X5	Y5	Z5	X6	Y6	Z6	X7	Y7	Z7	X8	Y8	Z8	X9	Y9	Z9	X10	Y10	Z10	X11	Y11	Z11	X12	Y12	Z12	X13	Y13	Z13	X14	Y14	Z14	X15	Y15	Z15	X16	Y16	Z16	X17	Y17	Z17	X18	Y18	Z18	X19	Y19	Z19	X20	Y20	Z20	X21	Y21	Z21	X22	Y22	Z22	X23	Y23	Z23	X24	Y24	Z24	X25	Y25	Z25	X26	Y26	Z26	X27	Y27	Z27	X28	Y28	Z28	X29	Y29	Z29	X30	Y30	Z30	X31	Y31	Z31	X32	Y32	Z32	X33	Y33	Z33	X34	Y34	Z34	X35	Y35	Z35	X36	Y36	Z36	X37	Y37	Z37	X38	Y38	Z38	X39	Y39	Z39	X40	Y40	Z40	X41	Y41	Z41	X42	Y42	Z42	X43	Y43	Z43	X44	Y44	Z44	X45	Y45	Z45	X46	Y46	Z46	X47	Y47	Z47	X48	Y48	Z48	X49	Y49	Z49	X50	Y50	Z50	X51	Y51	Z51	

1178	11.77000000	-139.44764	467.66968	-372.01535	-102.73419	368.88485	-370.19709	-277.99966	91.72697	-387.55100	-336.44106	56.39339	-440.64635	-164.61198	44.14691	-337.56932	-128.49804	78.06149	-386.62387	-134.66847	471.22607	-831.05583	-88.48696	377.96132	-827.27939	-264.01235	94.92560	-822.88365	-334.04318	49.53419	-766.84670	-165.88240	39.90365	-869.71627	-114.75310	69.69682	-822.17558	-148.49787	264.52246	-374.46029	-167.14529	392.69078	-338.87501	-217.85917	290.54667	-337.90130	-160.94575	419.86212	-860.05162	-209.92582	308.89315	-868.26136	-329.90687	666.16633	-392.18677	-234.66546	612.34085	-391.45887	-242.42067	551.09827	-357.12363	-386.67434	569.07895	-378.26564	-282.47467	515.54238	-373.73144	-291.79564	665.24291	-794.58685	-168.67927	599.45848	-797.52384	-343.76520	579.71012	-838.22684	-227.14159	513.81195	-831.74613	-314.13406	705.99397	-476.60418	-485.14227	821.93045	-559.89216	-318.21979	699.84769	-733.38994	-481.64391	819.80509	-656.07968	-186.84339	1164.85069	-600.24119	-110.98803	1099.30254	-444.55523	-103.31476	1088.60097	-734.93236	-109.64146	1038.52461	-574.90835	-106.05368	1042.71659	-615.31165	-34.60368	1020.65739	-399.25243	30.00148	816.69051	-407.40892	51.75847	843.31769	-345.34554	96.40681	918.54324	-384.54839	146.16959	1013.29135	-510.13363	186.51250	1002.95147	-482.40239	-27.24125	1001.48032	-782.97392	39.24073	808.08670	-757.85491	58.70014	843.49921	-828.30751	90.52948	908.74760	-803.86596	144.12450	1023.96326	-693.83647	187.03498	1007.76870	-719.75674	-427.14827	662.97053	-501.90677	-427.10391	658.50114	-691.41660	-417.65372	665.15158	-515.69571	-411.49248	661.40784	-685.09114	
1179	11.78000000	-139.43346	467.33414	-371.95937	-102.65428	368.58673	-370.08368	-278.09235	91.70119	-387.55410	-336.53153	56.27092	-440.64237	-164.69924	44.59978	-337.48718	-128.67109	78.52310	-386.65126	-134.96471	470.94623	-830.90700	-88.57612	377.82209	-827.25348	-264.14800	94.97060	-822.90548	-334.03602	49.74157	-767.08300	-165.89965	40.10211	-869.66853	-114.89101	70.27313	-822.25889	-148.55278	264.22897	-374.42536	-167.01792	392.55540	-338.77713	-217.84195	290.57212	-337.83289	-161.02368	419.82791	-859.96220	-210.05602	308.87791	-868.29828	-332.01019	663.53591	-392.09339	-236.34594	610.87651	-391.36839	-243.54095	548.32366	-358.89687	-387.90891	566.14254	-377.94688	-283.12046	513.51669	-373.52710	-293.80431	663.15403	-794.35873	-170.12866	598.70272	-797.17405	-345.08511	577.22050	-838.02565	-227.80563	512.53802	-831.56653	-315.42540	701.55534	-476.22180	-486.04937	818.03303	-559.75170	-319.96439	695.63658	-733.36952	-482.57207	815.96431	-655.92766	-185.69759	1158.77866	-600.06299	-109.71988	1092.86309	-444.55752	-102.38617	1082.10864	-734.78936	-109.18859	1031.81991	-575.14946	-105.31163	1036.22933	-615.24874	-33.33731	1014.56043	-399.40149	31.24717	810.65819	-407.08057	53.26218	837.44332	-345.16970	97.16918	912.96975	-384.57326	145.07755	1008.18395	-510.70593	185.68002	998.13112	-483.33836	-26.46124	995.16607	-782.86632	40.58856	801.56651	-757.54626	59.58264	837.16747	-827.87833	90.96661	902.67375	-803.53699	142.95425	1018.61681	-693.45403	186.14084	1002.85149	-719.24496	-428.65140	658.94706	-501.73821	-428.73980	654.52082	-691.24916	-419.29299	660.95131	-515.38312	-413.15942	657.30204	-685.02178	
1180	11.79000000	-139.43079	466.86722	-372.05220	-102.61447	368.26388	-369.99142	-278.25470	91.71697	-387.58834	-336.61983	56.19025	-440.62619	-164.77691	44.91822	-337.55205	-128.85375	79.04388	-386.71809	-135.32235	470.67575	-830.83479	-88.72499	377.64345	-827.07724	-264.26738	94.99296	-822.87047	-334.02021	50.03099	-767.38460	-165.95197	40.29671	-869.62466	-115.06370	70.87693	-822.47243	-148.67566	263.86141	-374.30385	-166.95852	392.45764	-338.64216	-217.83851	290.51802	-337.79210	-161.17048	419.75259	-859.76614	-210.23921	308.82742	-868.25695	-334.16339	661.26261	-391.84252	-238.10958	609.47145	-391.30240	-244.47651	546.90885	-359.45573	-389.15267	563.28833	-377.81535	-283.74237	511.46070	-373.53196	-296.14098	661.15536	-794.04362	-171.56532	597.85576	-796.62946	-346.45439	574.81847	-837.91040	-228.51859	511.41873	-831.45704	-316.66288	697.31846	-475.82872	-486.95926	814.18284	-559.54605	-321.63422	691.69691	-733.40547	-483.57021	812.23846	-655.60161	-184.55087	1152.87691	-599.92556	-108.55400	1086.56070	-444.55370	-101.42141	1075.76201	-734.71433	-108.43553	1025.63875	-575.07869	-104.52044	1030.06083	-615.13298	-32.10607	1008.50778	-399.47443	32.35383	804.90726	-406.70064	54.78154	831.72329	-344.94267	97.90975	907.50031	-384.59108	144.05909	1003.01251	-511.15457	184.99440	993.01901	-484.08039	-25.77170	989.07061	-782.80958	41.49542	795.39645	-757.41659	60.36904	831.05745	-827.71245	91.39032	896.70303	-803.27826	141.88198	1013.28867	-693.07824	185.28257	997.85241	-718.65838	-430.02619	655.00819	-501.56177	-430.28794	650.71541	-691.07552	-420.78608	656.82803	-515.02771	-414.79074	653.38868	-684.95991	
1181	11.80000000	-139.62798	466.10199	-372.25839	-102.59177	367.92749	-370.01820	-278.48025	91.66718	-387.70206	-336.69983	56.10777	-440.61801	-164.90908	45.14781	-337.77911	-129.07281	79.62644	-386.84111	-135.71032	470.41845	-830.78418	-88.89129	377.51017	-826.94031	-264.39622	95.00510	-822.81679	-334.06586	50.04053	-767.41986	-166.01932	40.35569	-869.41007	-115.19912	71.36844	-822.56359	-148.82476	263.56827	-374.32481	-166.92177	392.25118	-338.61982	-217.93621	290.27773	-337.87897	-161.33275	419.66633	-859.57167	-210.43178	308.77139	-868.14856	-336.08480	659.20174	-391.76134	-239.82324	608.07869	-391.40908	-245.37391	546.85360	-357.97619	-390.26157	560.43883	-377.92513	-284.33202	509.48553	-373.68541	-298.64651	659.28680	-793.77507	-173.20855	597.29547	-796.42489	-347.78107	572.57409	-837.84171	-229.20139	510.33776	-831.45627	-318.03641	693.08290	-475.81936	-487.83330	810.45005	-559.38594	-322.97154	688.14361	-733.67089	-484.53143	808.56509	-655.25355	-183.43629	1147.11886	-599.88444	-107.41603	1080.37637	-444.65915	-100.46103	1069.52792	-734.58174	-106.94012	1020.51599	-573.85019	-103.92072	1023.96700	-615.08321	-30.95436	1002.56226	-399.57320	34.04954	798.99699	-406.29898	56.23447	826.21916	-344.62457	98.63124	902.18276	-384.71458	143.07820	997.95110	-511.65926	184.47177	988.38332	-484.41579	-25.06563	983.03996	-782.64792	42.12595	789.45261	-757.42931	61.08751	825.10987	-827.73949	91.79853	890.90051	-803.12611	140.91058	1007.95994	-692.74083	184.48598	992.78513	-718.08360	-431.34373	650.99869	-501.74752	-431.64170	647.19035	-691.27121	-422.19429	653.11262	-515.01545	-416.33525	649.76826	-685.12641	
1182	11.81000000	-139.89932	465.56157	-372.42749	-102.57339	367.63639	-370.19238	-278.72830	91.56108	-387.88608	-336.77964	55.97859	-440.61613	-165.09278	45.44149	-337.96344	-129.31095	80.19198	-386.97128	-136.09950	470.15002	-830.67568	-89.06386	377.46400	-826.96566	-264.55812	95.01120	-822.78361	-334.13052	49.92553	-767.35901	-166.07318	40.32803	-869.08656	-115.31810	71.75663	-822.44684	-148.96875	263.40142	-374.53444	-166.85144	392.00700	-338.77335	-218.12289	289.98031	-338.08547	-161.48543	419.59927	-859.49371	-210.58277	308.72729	-868.06919	-337.76291	656.98210	-392.03959	-241.32681	606.66877	-391.65615	-246.27030	546.65581	-356.40413	-391.25465	557.81453	-377.81641	-284.85835	507.76180	-373.68616	-300.90084	657.52817	-793.54652	-174.90117	596.88893	-796.47974	-349.09535	570.49599	-837.78801	-229.92145	509.20649	-831.39899	-319.45743	688.76405	-476.24467	-488.67873	806.86984	-559.30298	-324.16821	684.76777	-733.66642	-485.33468	804.97735	-655.14908	-182.39351	1141.46197	-599.83692	-106.23784	1074.37391	-444.75931	-99.60946	1063.41171	-734.32259	-105.77480	1015.19068	-573.03377	-103.43513	1017.88073	-615.10632	-29.85526	996.76892	-399.61804	35.98700	793.01984	-405.90677	57.59605	820.84381	-344.28410	99.37368	896.92668	-384.87922	142.21667	993.12701	-512.24749	183.96713	984.17209	-484.66106	-24.28247	977.06000	-782.45254	42.98399	783.43751	-757.51470	61.81949	819.26791	-827.80641	92.18869	885.26798	-803.19595	140.03471	1002.61305	-692.52249	183.78436	987.77381	-717.80614	-432.72205	647.01169	-502.14874	-432.89514	643.82138	-691.68422	-423.58382	649.78088	-515.42832	-417.65941	646.42786	-685.23903	
